<?xml version="1.0" encoding="UTF-8"?>
<svg xmlns="http://www.w3.org/2000/svg" viewBox="0 0 1600 2500">
  <!-- Title Section -->
  <text x="800" y="40" font-size="32" font-weight="bold" text-anchor="middle" fill="#1e293b">
    SCMS 화면 구현 로드맵 (View Layer)
  </text>
  
  <text x="800" y="70" font-size="16" text-anchor="middle" fill="#64748b">
    요구사항정의서 기준 - 우선순위별 구현 계획 (Phase 3 Focus)
  </text>
  
  <!-- Legend -->
  <g id="legend" transform="translate(50, 100)">
    <text x="0" y="0" font-size="14" font-weight="bold" fill="#1e293b">범례</text>
    
    <rect x="0" y="10" width="30" height="20" fill="#22c55e" stroke="#16a34a" stroke-width="2" rx="3"/>
    <text x="40" y="25" font-size="12" fill="#1e293b">완료</text>
    
    <rect x="120" y="10" width="30" height="20" fill="#3b82f6" stroke="#2563eb" stroke-width="2" rx="3"/>
    <text x="160" y="25" font-size="12" fill="#1e293b">진행중</text>
    
    <rect x="240" y="10" width="30" height="20" fill="#f59e0b" stroke="#d97706" stroke-width="2" rx="3"/>
    <text x="280" y="25" font-size="12" fill="#1e293b">우선순위: 상</text>
    
    <rect x="400" y="10" width="30" height="20" fill="#94a3b8" stroke="#64748b" stroke-width="2" rx="3"/>
    <text x="440" y="25" font-size="12" fill="#1e293b">우선순위: 중/하</text>
  </g>
  
  <!-- Phase Overview -->
  <g id="phase-overview" transform="translate(50, 180)">
    <text x="0" y="0" font-size="20" font-weight="bold" fill="#1e293b">📅 Phase 구성 (View First 전략)</text>
    
    <!-- Phase 3 -->
    <rect x="0" y="20" width="1500" height="100" fill="#dbeafe" stroke="#3b82f6" stroke-width="3" rx="5"/>
    <text x="20" y="45" font-size="16" font-weight="bold" fill="#1e40af">✨ Phase 3: View Layer (현재 단계)</text>
    <text x="20" y="70" font-size="14" fill="#1e40af">• Thymeleaf Fragment 패턴 + 정적 HTML/CSS/JavaScript</text>
    <text x="20" y="90" font-size="14" fill="#1e40af">• Mock 데이터로 화면 구현 → 사용자 경험 및 데이터 구조 검증</text>
    <text x="20" y="110" font-size="14" fill="#1e40af">• 목표: 30개 핵심 화면 구현 (예상 8주)</text>
    
    <!-- Phase 4 -->
    <rect x="0" y="140" width="1500" height="70" fill="#f3f4f6" stroke="#9ca3af" stroke-width="2" rx="5"/>
    <text x="20" y="165" font-size="16" font-weight="bold" fill="#4b5563">Phase 4: Service Layer (예상 6주)</text>
    <text x="20" y="190" font-size="14" fill="#4b5563">• 비즈니스 로직 구현 (Repository → Service 연결)</text>
    
    <!-- Phase 5 -->
    <rect x="0" y="230" width="1500" height="70" fill="#f3f4f6" stroke="#9ca3af" stroke-width="2" rx="5"/>
    <text x="20" y="255" font-size="16" font-weight="bold" fill="#4b5563">Phase 5: Controller &amp; API Integration (예상 4주)</text>
    <text x="20" y="280" font-size="14" fill="#4b5563">• Mock 데이터를 실제 API로 교체, RESTful API 완성</text>
  </g>
  
  <!-- Main Content: Screen Structure -->
  <g id="screen-structure" transform="translate(50, 520)">
    <text x="0" y="0" font-size="20" font-weight="bold" fill="#1e293b">🖥️ 화면 구조 및 구현 계획 (총 50+ 화면)</text>
    
    <!-- 1. 공통 모듈 -->
    <g transform="translate(0, 40)">
      <rect x="0" y="0" width="350" height="200" fill="#f1f5f9" stroke="#64748b" stroke-width="2" rx="5"/>
      <text x="10" y="25" font-size="16" font-weight="bold" fill="#1e293b">1️⃣ 공통 모듈 (AUTH/CMN)</text>
      <text x="10" y="45" font-size="12" fill="#64748b">기본 레이아웃 및 인증</text>
      
      <g transform="translate(10, 60)">
        <rect x="0" y="0" width="20" height="15" fill="#22c55e" stroke="#16a34a" stroke-width="1" rx="2"/>
        <text x="25" y="12" font-size="12" fill="#1e293b">✅ Header/Footer Fragment</text>
        
        <rect x="0" y="25" width="20" height="15" fill="#22c55e" stroke="#16a34a" stroke-width="1" rx="2"/>
        <text x="25" y="37" font-size="12" fill="#1e293b">✅ Default Layout</text>
        
        <rect x="0" y="50" width="20" height="15" fill="#22c55e" stroke="#16a34a" stroke-width="1" rx="2"/>
        <text x="25" y="62" font-size="12" fill="#1e293b">✅ Hero Section (Auto Slide)</text>
        
        <rect x="0" y="75" width="20" height="15" fill="#f59e0b" stroke="#d97706" stroke-width="1" rx="2"/>
        <text x="25" y="87" font-size="12" fill="#1e293b">📋 로그인 페이지</text>
        
        <rect x="0" y="100" width="20" height="15" fill="#94a3b8" stroke="#64748b" stroke-width="1" rx="2"/>
        <text x="25" y="112" font-size="12" fill="#64748b">회원가입 페이지</text>
        
        <rect x="0" y="125" width="20" height="15" fill="#94a3b8" stroke="#64748b" stroke-width="1" rx="2"/>
        <text x="25" y="137" font-size="12" fill="#64748b">메인 대시보드</text>
      </g>
    </g>
    
    <!-- 2. 비교과 프로그램 -->
    <g transform="translate(380, 40)">
      <rect x="0" y="0" width="350" height="300" fill="#fef3c7" stroke="#f59e0b" stroke-width="3" rx="5"/>
      <text x="10" y="25" font-size="16" font-weight="bold" fill="#92400e">2️⃣ 비교과 프로그램 (PRG)</text>
      <text x="10" y="45" font-size="12" font-weight="bold" fill="#b45309">🔥 우선순위: 상 (핵심 도메인)</text>
      
      <g transform="translate(10, 60)">
        <rect x="0" y="0" width="20" height="15" fill="#22c55e" stroke="#16a34a" stroke-width="1" rx="2"/>
        <text x="25" y="12" font-size="12" fill="#1e293b">✅ 프로그램 상세 (REQ-044)</text>
        
        <rect x="0" y="25" width="20" height="15" fill="#22c55e" stroke="#16a34a" stroke-width="1" rx="2"/>
        <text x="25" y="37" font-size="12" fill="#1e293b">✅ 마일리지 조회 (REQ-056)</text>
        
        <rect x="0" y="55" width="20" height="15" fill="#3b82f6" stroke="#2563eb" stroke-width="2" rx="2"/>
        <text x="25" y="67" font-size="12" font-weight="bold" fill="#1e40af">🔄 프로그램 목록 (REQ-043)</text>
        
        <rect x="0" y="80" width="20" height="15" fill="#f59e0b" stroke="#d97706" stroke-width="1" rx="2"/>
        <text x="25" y="92" font-size="12" fill="#1e293b">📋 프로그램 검색/필터 (REQ-048)</text>
        
        <rect x="0" y="105" width="20" height="15" fill="#f59e0b" stroke="#d97706" stroke-width="1" rx="2"/>
        <text x="25" y="117" font-size="12" fill="#1e293b">📋 프로그램 신청 (REQ-049)</text>
        
        <rect x="0" y="130" width="20" height="15" fill="#f59e0b" stroke="#d97706" stroke-width="1" rx="2"/>
        <text x="25" y="142" font-size="12" fill="#1e293b">📋 신청 취소 (REQ-050)</text>
        
        <rect x="0" y="155" width="20" height="15" fill="#f59e0b" stroke="#d97706" stroke-width="1" rx="2"/>
        <text x="25" y="167" font-size="12" fill="#1e293b">📋 신청 이력 조회 (REQ-051)</text>
        
        <rect x="0" y="180" width="20" height="15" fill="#f59e0b" stroke="#d97706" stroke-width="1" rx="2"/>
        <text x="25" y="192" font-size="12" fill="#1e293b">📋 이수내역 조회 (REQ-055)</text>
        
        <rect x="0" y="205" width="20" height="15" fill="#94a3b8" stroke="#64748b" stroke-width="1" rx="2"/>
        <text x="25" y="217" font-size="12" fill="#64748b">개인 대시보드 (REQ-057)</text>
      </g>
    </g>
    
    <!-- 3. 통합상담 -->
    <g transform="translate(760, 40)">
      <rect x="0" y="0" width="350" height="250" fill="#fef3c7" stroke="#f59e0b" stroke-width="3" rx="5"/>
      <text x="10" y="25" font-size="16" font-weight="bold" fill="#92400e">3️⃣ 통합상담 (CNSL)</text>
      <text x="10" y="45" font-size="12" font-weight="bold" fill="#b45309">🔥 우선순위: 상</text>
      
      <g transform="translate(10, 60)">
        <rect x="0" y="0" width="20" height="15" fill="#f59e0b" stroke="#d97706" stroke-width="1" rx="2"/>
        <text x="25" y="12" font-size="12" fill="#1e293b">📋 상담 예약 등록 (CNSL-001)</text>
        
        <rect x="0" y="25" width="20" height="15" fill="#f59e0b" stroke="#d97706" stroke-width="1" rx="2"/>
        <text x="25" y="37" font-size="12" fill="#1e293b">📋 상담 예약 목록 (CNSL-002)</text>
        
        <rect x="0" y="50" width="20" height="15" fill="#f59e0b" stroke="#d97706" stroke-width="1" rx="2"/>
        <text x="25" y="62" font-size="12" fill="#1e293b">📋 상담 예약 상세 (CNSL-003)</text>
        
        <rect x="0" y="75" width="20" height="15" fill="#f59e0b" stroke="#d97706" stroke-width="1" rx="2"/>
        <text x="25" y="87" font-size="12" fill="#1e293b">📋 상담 예약 취소 (CNSL-004)</text>
        
        <rect x="0" y="100" width="20" height="15" fill="#94a3b8" stroke="#64748b" stroke-width="1" rx="2"/>
        <text x="25" y="112" font-size="12" fill="#64748b">상담 만족도 제출 (CNSL-005)</text>
        
        <text x="0" y="145" font-size="11" fill="#b45309">※ 상담사/관리자 화면은 Phase 4 이후</text>
        <text x="0" y="165" font-size="11" fill="#b45309">※ 학생 화면 우선 구현</text>
      </g>
    </g>
    
    <!-- 4. 역량진단 -->
    <g transform="translate(1140, 40)">
      <rect x="0" y="0" width="350" height="300" fill="#fef3c7" stroke="#f59e0b" stroke-width="3" rx="5"/>
      <text x="10" y="25" font-size="16" font-weight="bold" fill="#92400e">4️⃣ 역량진단 (COMP)</text>
      <text x="10" y="45" font-size="12" font-weight="bold" fill="#b45309">🔥 우선순위: 상</text>
      
      <g transform="translate(10, 60)">
        <rect x="0" y="0" width="20" height="15" fill="#f59e0b" stroke="#d97706" stroke-width="1" rx="2"/>
        <text x="25" y="12" font-size="12" fill="#1e293b">📋 진단 목록 조회 (COMP-013)</text>
        
        <rect x="0" y="25" width="20" height="15" fill="#f59e0b" stroke="#d97706" stroke-width="1" rx="2"/>
        <text x="25" y="37" font-size="12" fill="#1e293b">📋 진단 시작/응시 화면</text>
        
        <rect x="0" y="50" width="20" height="15" fill="#f59e0b" stroke="#d97706" stroke-width="1" rx="2"/>
        <text x="25" y="62" font-size="12" fill="#1e293b">📋 진단 답변 등록 (COMP-014)</text>
        
        <rect x="0" y="75" width="20" height="15" fill="#f59e0b" stroke="#d97706" stroke-width="1" rx="2"/>
        <text x="25" y="87" font-size="12" fill="#1e293b">📋 진단 답변 수정 (COMP-015)</text>
        
        <rect x="0" y="100" width="20" height="15" fill="#f59e0b" stroke="#d97706" stroke-width="1" rx="2"/>
        <text x="25" y="112" font-size="12" fill="#1e293b">📋 개인 역량 결과 (COMP-017)</text>
        
        <rect x="0" y="125" width="20" height="15" fill="#f59e0b" stroke="#d97706" stroke-width="1" rx="2"/>
        <text x="25" y="137" font-size="12" fill="#1e293b">📋 역량 평균 비교 (COMP-018)</text>
        
        <rect x="0" y="150" width="20" height="15" fill="#f59e0b" stroke="#d97706" stroke-width="1" rx="2"/>
        <text x="25" y="162" font-size="12" fill="#1e293b">📋 역량 그래프 시각화</text>
        
        <text x="0" y="195" font-size="11" fill="#b45309">※ 관리자 문항관리는 Phase 4 이후</text>
      </g>
    </g>
    
    <!-- 5. 진로설계/포트폴리오 -->
    <g transform="translate(0, 370)">
      <rect x="0" y="0" width="350" height="220" fill="#fef3c7" stroke="#f59e0b" stroke-width="2" rx="5"/>
      <text x="10" y="25" font-size="16" font-weight="bold" fill="#92400e">5️⃣ 진로설계/포트폴리오 (CAR)</text>
      <text x="10" y="45" font-size="12" fill="#b45309">🔥 우선순위: 상</text>
      
      <g transform="translate(10, 60)">
        <rect x="0" y="0" width="20" height="15" fill="#f59e0b" stroke="#d97706" stroke-width="1" rx="2"/>
        <text x="25" y="12" font-size="12" fill="#1e293b">📋 커리어넷 진로검사 (REQ-001)</text>
        
        <rect x="0" y="25" width="20" height="15" fill="#f59e0b" stroke="#d97706" stroke-width="1" rx="2"/>
        <text x="25" y="37" font-size="12" fill="#1e293b">📋 진로검사 결과 조회</text>
        
        <rect x="0" y="50" width="20" height="15" fill="#94a3b8" stroke="#64748b" stroke-width="1" rx="2"/>
        <text x="25" y="62" font-size="12" fill="#64748b">포트폴리오 목록 (REQ-005)</text>
        
        <rect x="0" y="75" width="20" height="15" fill="#94a3b8" stroke="#64748b" stroke-width="1" rx="2"/>
        <text x="25" y="87" font-size="12" fill="#64748b">포트폴리오 등록 (REQ-006)</text>
        
        <rect x="0" y="100" width="20" height="15" fill="#94a3b8" stroke="#64748b" stroke-width="1" rx="2"/>
        <text x="25" y="112" font-size="12" fill="#64748b">포트폴리오 수정 (REQ-007)</text>
        
        <rect x="0" y="125" width="20" height="15" fill="#94a3b8" stroke="#64748b" stroke-width="1" rx="2"/>
        <text x="25" y="137" font-size="12" fill="#64748b">포트폴리오 삭제 (REQ-008)</text>
        
        <rect x="0" y="150" width="20" height="15" fill="#94a3b8" stroke="#64748b" stroke-width="1" rx="2"/>
        <text x="25" y="162" font-size="12" fill="#64748b">파일 업로드/관리 (REQ-010~013)</text>
      </g>
    </g>
    
    <!-- 6. 채용공고/캘린더 -->
    <g transform="translate(380, 370)">
      <rect x="0" y="0" width="350" height="220" fill="#fef3c7" stroke="#f59e0b" stroke-width="2" rx="5"/>
      <text x="10" y="25" font-size="16" font-weight="bold" fill="#92400e">6️⃣ 채용공고/캘린더 (JOB)</text>
      <text x="10" y="45" font-size="12" fill="#b45309">🔥 우선순위: 상</text>
      
      <g transform="translate(10, 60)">
        <rect x="0" y="0" width="20" height="15" fill="#f59e0b" stroke="#d97706" stroke-width="1" rx="2"/>
        <text x="25" y="12" font-size="12" fill="#1e293b">📋 채용공고 목록 (REQ-014)</text>
        
        <rect x="0" y="25" width="20" height="15" fill="#f59e0b" stroke="#d97706" stroke-width="1" rx="2"/>
        <text x="25" y="37" font-size="12" fill="#1e293b">📋 채용공고 상세 (REQ-015)</text>
        
        <rect x="0" y="50" width="20" height="15" fill="#f59e0b" stroke="#d97706" stroke-width="1" rx="2"/>
        <text x="25" y="62" font-size="12" fill="#1e293b">📋 채용공고 검색/필터 (REQ-017~021)</text>
        
        <rect x="0" y="75" width="20" height="15" fill="#f59e0b" stroke="#d97706" stroke-width="1" rx="2"/>
        <text x="25" y="87" font-size="12" fill="#1e293b">📋 채용캘린더 (REQ-030~031)</text>
        
        <rect x="0" y="100" width="20" height="15" fill="#94a3b8" stroke="#64748b" stroke-width="1" rx="2"/>
        <text x="25" y="112" font-size="12" fill="#64748b">북마크 관리 (REQ-023~024)</text>
        
        <text x="0" y="145" font-size="11" fill="#b45309">※ 외부 API 연동 (워크넷, 사람인 등)</text>
      </g>
    </g>
    
    <!-- 7. 마이페이지 -->
    <g transform="translate(760, 370)">
      <rect x="0" y="0" width="350" height="220" fill="#f1f5f9" stroke="#64748b" stroke-width="2" rx="5"/>
      <text x="10" y="25" font-size="16" font-weight="bold" fill="#1e293b">7️⃣ 마이페이지 (MY)</text>
      <text x="10" y="45" font-size="12" fill="#64748b">우선순위: 중</text>
      
      <g transform="translate(10, 60)">
        <rect x="0" y="0" width="20" height="15" fill="#94a3b8" stroke="#64748b" stroke-width="1" rx="2"/>
        <text x="25" y="12" font-size="12" fill="#64748b">회원 정보 조회 (MY-001)</text>
        
        <rect x="0" y="25" width="20" height="15" fill="#94a3b8" stroke="#64748b" stroke-width="1" rx="2"/>
        <text x="25" y="37" font-size="12" fill="#64748b">회원 정보 수정 (MY-005~007)</text>
        
        <rect x="0" y="50" width="20" height="15" fill="#94a3b8" stroke="#64748b" stroke-width="1" rx="2"/>
        <text x="25" y="62" font-size="12" fill="#64748b">비밀번호 변경 (MY-008~012)</text>
        
        <rect x="0" y="75" width="20" height="15" fill="#94a3b8" stroke="#64748b" stroke-width="1" rx="2"/>
        <text x="25" y="87" font-size="12" fill="#64748b">알림 설정</text>
        
        <rect x="0" y="100" width="20" height="15" fill="#94a3b8" stroke="#64748b" stroke-width="1" rx="2"/>
        <text x="25" y="112" font-size="12" fill="#64748b">활동 이력 조회</text>
      </g>
    </g>
    
    <!-- 8. 관리자 대시보드 -->
    <g transform="translate(1140, 370)">
      <rect x="0" y="0" width="350" height="220" fill="#e5e7eb" stroke="#6b7280" stroke-width="2" rx="5"/>
      <text x="10" y="25" font-size="16" font-weight="bold" fill="#374151">8️⃣ 관리자 대시보드 (ADM)</text>
      <text x="10" y="45" font-size="12" fill="#6b7280">Phase 4 이후 구현</text>
      
      <g transform="translate(10, 65)">
        <rect x="0" y="0" width="20" height="15" fill="#94a3b8" stroke="#64748b" stroke-width="1" rx="2"/>
        <text x="25" y="12" font-size="12" fill="#64748b">사용자 관리 (권한, 승인)</text>
        
        <rect x="0" y="25" width="20" height="15" fill="#94a3b8" stroke="#64748b" stroke-width="1" rx="2"/>
        <text x="25" y="37" font-size="12" fill="#64748b">프로그램 관리</text>
        
        <rect x="0" y="50" width="20" height="15" fill="#94a3b8" stroke="#64748b" stroke-width="1" rx="2"/>
        <text x="25" y="62" font-size="12" fill="#64748b">상담 관리 (상담사용)</text>
        
        <rect x="0" y="75" width="20" height="15" fill="#94a3b8" stroke="#64748b" stroke-width="1" rx="2"/>
        <text x="25" y="87" font-size="12" fill="#64748b">진단 문항 관리</text>
        
        <rect x="0" y="100" width="20" height="15" fill="#94a3b8" stroke="#64748b" stroke-width="1" rx="2"/>
        <text x="25" y="112" font-size="12" fill="#64748b">통계/보고서</text>
      </g>
    </g>
  </g>
  
  <!-- Implementation Timeline -->
  <g id="timeline" transform="translate(50, 1150)">
    <text x="0" y="0" font-size="20" font-weight="bold" fill="#1e293b">⏱️ 구현 타임라인 (Phase 3 상세 - 8주 계획)</text>
    
    <!-- Week 1-2 -->
    <g transform="translate(0, 40)">
      <rect x="0" y="0" width="700" height="160" fill="#dbeafe" stroke="#3b82f6" stroke-width="2" rx="5"/>
      <text x="15" y="25" font-size="16" font-weight="bold" fill="#1e40af">Week 1-2: 비교과 프로그램 완성 ⭐</text>
      <text x="15" y="45" font-size="12" fill="#1e40af">목표: 핵심 도메인 완료 (6개 화면)</text>
      
      <g transform="translate(20, 60)">
        <circle cx="5" cy="5" r="4" fill="#22c55e"/>
        <text x="15" y="10" font-size="13" fill="#1e293b">✅ 프로그램 상세 페이지 (완료)</text>
        
        <circle cx="5" cy="30" r="4" fill="#22c55e"/>
        <text x="15" y="35" font-size="13" fill="#1e293b">✅ 마일리지 현황 페이지 (완료)</text>
        
        <circle cx="5" cy="55" r="4" fill="#3b82f6"/>
        <text x="15" y="60" font-size="13" font-weight="bold" fill="#1e40af">🔄 프로그램 목록 페이지 (현재)</text>
        
        <circle cx="350" cy="5" r="4" fill="#f59e0b"/>
        <text x="360" y="10" font-size="13" fill="#1e293b">📋 프로그램 신청 페이지</text>
        
        <circle cx="350" cy="30" r="4" fill="#f59e0b"/>
        <text x="360" y="35" font-size="13" fill="#1e293b">📋 신청 취소/이력 페이지</text>
        
        <circle cx="350" cy="55" r="4" fill="#f59e0b"/>
        <text x="360" y="60" font-size="13" fill="#1e293b">📋 이수내역 조회 페이지</text>
      </g>
    </g>
    
    <!-- Week 3-4 -->
    <g transform="translate(750, 40)">
      <rect x="0" y="0" width="700" height="160" fill="#fef3c7" stroke="#f59e0b" stroke-width="2" rx="5"/>
      <text x="15" y="25" font-size="16" font-weight="bold" fill="#92400e">Week 3-4: 통합상담 ⭐</text>
      <text x="15" y="45" font-size="12" fill="#92400e">목표: 학생용 상담 화면 (4개 화면)</text>
      
      <g transform="translate(20, 60)">
        <circle cx="5" cy="5" r="4" fill="#f59e0b"/>
        <text x="15" y="10" font-size="13" fill="#1e293b">📋 상담 예약 등록 (Form)</text>
        
        <circle cx="5" cy="30" r="4" fill="#f59e0b"/>
        <text x="15" y="35" font-size="13" fill="#1e293b">📋 상담 예약 목록 (List)</text>
        
        <circle cx="5" cy="55" r="4" fill="#f59e0b"/>
        <text x="15" y="60" font-size="13" fill="#1e293b">📋 상담 예약 상세 (Detail)</text>
        
        <circle cx="350" cy="5" r="4" fill="#f59e0b"/>
        <text x="360" y="10" font-size="13" fill="#1e293b">📋 상담 예약 취소 (Cancel)</text>
        
        <text x="5" y="90" font-size="11" fill="#92400e">※ 상담사/관리자 화면은 Phase 4로 연기</text>
      </g>
    </g>
    
    <!-- Week 5-6 -->
    <g transform="translate(0, 220)">
      <rect x="0" y="0" width="700" height="160" fill="#fef3c7" stroke="#f59e0b" stroke-width="2" rx="5"/>
      <text x="15" y="25" font-size="16" font-weight="bold" fill="#92400e">Week 5-6: 역량진단 ⭐</text>
      <text x="15" y="45" font-size="12" fill="#92400e">목표: 진단 응시 및 결과 확인 (6개 화면)</text>
      
      <g transform="translate(20, 60)">
        <circle cx="5" cy="5" r="4" fill="#f59e0b"/>
        <text x="15" y="10" font-size="13" fill="#1e293b">📋 진단 목록/시작 페이지</text>
        
        <circle cx="5" cy="30" r="4" fill="#f59e0b"/>
        <text x="15" y="35" font-size="13" fill="#1e293b">📋 진단 응시 페이지 (설문 UI)</text>
        
        <circle cx="5" cy="55" r="4" fill="#f59e0b"/>
        <text x="15" y="60" font-size="13" fill="#1e293b">📋 진단 결과 조회 (개인)</text>
        
        <circle cx="350" cy="5" r="4" fill="#f59e0b"/>
        <text x="360" y="10" font-size="13" fill="#1e293b">📋 역량 비교 분석 (평균)</text>
        
        <circle cx="350" cy="30" r="4" fill="#f59e0b"/>
        <text x="360" y="35" font-size="13" fill="#1e293b">📋 역량 레이더 차트</text>
        
        <text x="5" y="90" font-size="11" fill="#92400e">※ Chart.js 또는 TOAST UI Chart 활용</text>
      </g>
    </g>
    
    <!-- Week 7 -->
    <g transform="translate(750, 220)">
      <rect x="0" y="0" width="700" height="160" fill="#fef3c7" stroke="#f59e0b" stroke-width="2" rx="5"/>
      <text x="15" y="25" font-size="16" font-weight="bold" fill="#92400e">Week 7: 진로설계 &amp; 채용공고 ⭐</text>
      <text x="15" y="45" font-size="12" fill="#92400e">목표: 진로검사 + 채용정보 (4개 화면)</text>
      
      <g transform="translate(20, 60)">
        <circle cx="5" cy="5" r="4" fill="#f59e0b"/>
        <text x="15" y="10" font-size="13" fill="#1e293b">📋 커리어넷 진로검사 연동</text>
        
        <circle cx="5" cy="30" r="4" fill="#f59e0b"/>
        <text x="15" y="35" font-size="13" fill="#1e293b">📋 진로검사 결과 페이지</text>
        
        <circle cx="350" cy="5" r="4" fill="#f59e0b"/>
        <text x="360" y="10" font-size="13" fill="#1e293b">📋 채용공고 목록/검색</text>
        
        <circle cx="350" cy="30" r="4" fill="#f59e0b"/>
        <text x="360" y="35" font-size="13" fill="#1e293b">📋 채용캘린더 (FullCalendar)</text>
      </g>
    </g>
    
    <!-- Week 8 -->
    <g transform="translate(0, 400)">
      <rect x="0" y="0" width="1450" height="140" fill="#f3f4f6" stroke="#9ca3af" stroke-width="2" rx="5"/>
      <text x="15" y="25" font-size="16" font-weight="bold" fill="#4b5563">Week 8: 기타 페이지 &amp; 통합 테스트</text>
      <text x="15" y="45" font-size="12" fill="#4b5563">목표: 기본 페이지 완성 + 전체 네비게이션 점검</text>
      
      <g transform="translate(20, 60)">
        <circle cx="5" cy="5" r="4" fill="#94a3b8"/>
        <text x="15" y="10" font-size="13" fill="#64748b">로그인/회원가입 페이지</text>
        
        <circle cx="5" cy="30" r="4" fill="#94a3b8"/>
        <text x="15" y="35" font-size="13" fill="#64748b">마이페이지 (정보수정, 비밀번호변경)</text>
        
        <circle cx="350" cy="5" r="4" fill="#94a3b8"/>
        <text x="360" y="10" font-size="13" fill="#64748b">에러 페이지 (404/403/500)</text>
        
        <circle cx="350" cy="30" r="4" fill="#94a3b8"/>
        <text x="360" y="35" font-size="13" fill="#64748b">포트폴리오 기본 페이지</text>
        
        <circle cx="700" cy="5" r="4" fill="#3b82f6"/>
        <text x="710" y="10" font-size="13" font-weight="bold" fill="#1e40af">🔍 전체 화면 통합 테스트</text>
        
        <circle cx="700" cy="30" r="4" fill="#3b82f6"/>
        <text x="710" y="35" font-size="13" font-weight="bold" fill="#1e40af">📝 Phase 3 완료 보고서 작성</text>
      </g>
    </g>
  </g>
  
  <!-- Statistics -->
  <g id="statistics" transform="translate(50, 1750)">
    <text x="0" y="0" font-size="20" font-weight="bold" fill="#1e293b">📊 구현 통계 및 목표</text>
    
    <g transform="translate(0, 30)">
      <rect x="0" y="0" width="450" height="230" fill="#f8fafc" stroke="#cbd5e1" stroke-width="2" rx="5"/>
      
      <text x="20" y="30" font-size="14" font-weight="bold" fill="#1e293b">전체 화면 수</text>
      <text x="20" y="55" font-size="24" font-weight="bold" fill="#3b82f6">약 50+ 화면</text>
      <text x="20" y="75" font-size="11" fill="#64748b">(학생 30개 + 관리자 20개)</text>
      
      <text x="20" y="105" font-size="14" font-weight="bold" fill="#1e293b">Phase 3 목표</text>
      <text x="20" y="130" font-size="24" font-weight="bold" fill="#f59e0b">30개 핵심 화면</text>
      <text x="20" y="150" font-size="11" fill="#64748b">(학생용 우선 구현)</text>
      
      <text x="20" y="180" font-size="14" font-weight="bold" fill="#1e293b">현재 완료</text>
      <text x="20" y="205" font-size="24" font-weight="bold" fill="#22c55e">3개 (10%)</text>
    </g>
    
    <g transform="translate(480, 30)">
      <rect x="0" y="0" width="450" height="230" fill="#f8fafc" stroke="#cbd5e1" stroke-width="2" rx="5"/>
      
      <text x="20" y="30" font-size="14" font-weight="bold" fill="#1e293b">우선순위별 분류</text>
      
      <circle cx="25" cy="55" r="8" fill="#f59e0b"/>
      <text x="45" y="62" font-size="14" fill="#1e293b">상 (High): 약 20개</text>
      <text x="45" y="78" font-size="11" fill="#64748b">PRG, CNSL, COMP, CAR, JOB</text>
      
      <circle cx="25" cy="100" r="8" fill="#60a5fa"/>
      <text x="45" y="107" font-size="14" fill="#1e293b">중 (Medium): 약 10개</text>
      <text x="45" y="123" font-size="11" fill="#64748b">MY, 포트폴리오 상세 등</text>
      
      <circle cx="25" cy="145" r="8" fill="#94a3b8"/>
      <text x="45" y="152" font-size="14" fill="#1e293b">하 (Low): 약 20개</text>
      <text x="45" y="168" font-size="11" fill="#64748b">관리자 페이지 대부분</text>
      
      <text x="20" y="200" font-size="11" fill="#64748b">※ 관리자 화면은 Phase 4 이후 구현</text>
    </g>
    
    <g transform="translate(960, 30)">
      <rect x="0" y="0" width="500" height="230" fill="#f8fafc" stroke="#cbd5e1" stroke-width="2" rx="5"/>
      
      <text x="20" y="30" font-size="14" font-weight="bold" fill="#1e293b">예상 소요 기간</text>
      
      <text x="20" y="60" font-size="13" fill="#1e293b">• Phase 3 (View): 8주</text>
      <text x="35" y="78" font-size="11" fill="#64748b">학생용 30개 화면 완성</text>
      
      <text x="20" y="100" font-size="13" fill="#1e293b">• Phase 4 (Service): 6주</text>
      <text x="35" y="118" font-size="11" fill="#64748b">비즈니스 로직 구현</text>
      
      <text x="20" y="140" font-size="13" fill="#1e293b">• Phase 5 (Controller): 4주</text>
      <text x="35" y="158" font-size="11" fill="#64748b">API 통합 및 Mock 제거</text>
      
      <text x="20" y="180" font-size="13" fill="#1e293b">• Phase 6 (Test/Deploy): 4주</text>
      <text x="35" y="198" font-size="11" fill="#64748b">테스트, 보안, 배포</text>
      
      <text x="20" y="220" font-size="16" font-weight="bold" fill="#3b82f6">총 예상: 22주</text>
    </g>
  </g>
  
  <!-- Priority Focus -->
  <g id="priority-focus" transform="translate(50, 2030)">
    <rect x="0" y="0" width="1500" height="180" fill="#fef3c7" stroke="#f59e0b" stroke-width="3" rx="10"/>
    
    <text x="750" y="35" font-size="20" font-weight="bold" text-anchor="middle" fill="#92400e">
      🎯 이번 주 집중 구현 목표 (Week 1 현재)
    </text>
    
    <g transform="translate(100, 60)">
      <circle cx="10" cy="10" r="8" fill="#22c55e"/>
      <text x="30" y="17" font-size="15" font-weight="bold" fill="#22c55e">✅ 완료</text>
      <text x="30" y="35" font-size="13" fill="#1e293b">• 프로그램 상세 페이지</text>
      <text x="30" y="53" font-size="13" fill="#1e293b">• 마일리지 현황 페이지</text>
      <text x="30" y="71" font-size="13" fill="#1e293b">• Fragment 패턴 확립</text>
    </g>
    
    <g transform="translate(550, 60)">
      <circle cx="10" cy="10" r="8" fill="#3b82f6"/>
      <text x="30" y="17" font-size="15" font-weight="bold" fill="#1e40af">🔄 진행 중</text>
      <text x="30" y="35" font-size="13" fill="#1e293b">• 프로그램 목록 페이지</text>
      <text x="30" y="53" font-size="13" fill="#64748b">  (검색/필터/페이징 포함)</text>
    </g>
    
    <g transform="translate(1000, 60)">
      <circle cx="10" cy="10" r="8" fill="#f59e0b"/>
      <text x="30" y="17" font-size="15" font-weight="bold" fill="#92400e">📋 다음 작업</text>
      <text x="30" y="35" font-size="13" fill="#1e293b">• 프로그램 신청 페이지</text>
      <text x="30" y="53" font-size="13" fill="#1e293b">• 신청 취소/이력 페이지</text>
      <text x="30" y="71" font-size="13" fill="#1e293b">• 이수내역 조회 페이지</text>
    </g>
  </g>
  
  <!-- Footer Notes -->
  <g id="footer" transform="translate(50, 2260)">
    <text x="0" y="0" font-size="14" font-weight="bold" fill="#1e293b">📌 주요 개발 원칙</text>
    <text x="0" y="25" font-size="12" fill="#64748b">• View First 전략: 화면 먼저 완성 → UX 검증 → 백엔드 개발로 이어지는 순차적 접근</text>
    <text x="0" y="45" font-size="12" fill="#64748b">• Thymeleaf Fragment 패턴: Header/Footer 재사용으로 코드 중복 76% 감소</text>
    <text x="0" y="65" font-size="12" fill="#64748b">• Mock 데이터 활용: 실제 데이터 구조를 반영한 Mock으로 Phase 5에서 빠른 API 전환</text>
    <text x="0" y="85" font-size="12" fill="#64748b">• 우선순위 기반 개발: 요구사항정의서의 우선순위 '상' 기능 우선 구현</text>
    <text x="0" y="105" font-size="12" fill="#64748b">• Git 워크플로우: Feature Branch → Test → Commit → Merge → Push</text>
    <text x="0" y="125" font-size="12" fill="#64748b">• 반응형 디자인: Bootstrap 5 Grid System + Custom CSS</text>
    
    <text x="0" y="170" font-size="11" fill="#94a3b8">작성일: 2025-11-04 | 작성자: Claude + Hojin | 문서버전: v2.0 (최종)</text>
    <text x="0" y="190" font-size="11" fill="#94a3b8">프로젝트: SCMS (Student Competency Management System) | Phase 3: View Layer Implementation</text>
  </g>
</svg>
